Patient4_TMGait_0pt7_01_right_02_EMG.mot
version=1
nRows=23
nColumns=33
inDegrees=no
endheader
time	1LAddLong	2LGlutMax	3LGlutMed	4LIliopsoas	5LSemiMemb	6LBicFemLong	7LRecFem	8LVastMed	9LVastLat	10LGasMed	11LTibAnt	12lTibPost	13LPeroneusLong	14LSol	15LExtDigLong	16LFlexDigLong	17RAddLong	18RGlutMax	19RGlutMed	20RIliopsoas	21RSemiMemb	22RBicFemLong	23RRecFem	24RVastMed	25RVastLat	26RGasMed	27RTibAnt	28RTibPost	29RPeroneusLong	30RSol	31RExtDigLong	32RFlexDigLong
2.117	0.002441	-0.39688	-0.25528	0.05127	0.014954	-0.018005	0.14023	-0.019073	0.13626	0.013733	0.084839	0.003815	-0.10361	-0.18188	0.097809	-0.00473	-0.009766	0.28961	-0.75272	0.14954	-0.026855	0.42084	0.42068	0.023956	-0.08606	0.018921	0.10269	-0.031128	-0.25833	-0.23758	0.001221	-0.012665
2.118	0.008392	-0.38559	-0.25269	0.008545	0.012665	-0.072937	0.15518	-0.017548	0.14114	0.022125	0.0354	-0.001678	-0.12314	-0.044861	0.21988	-0.007019	-0.039368	0.2713	-1.1061	0.15167	0.17883	0.30273	0.31311	-0.019684	0.42145	0.00412	0.04837	-0.10803	-0.076599	-0.1683	-0.001526	-0.009003
2.119	0.011902	-0.37689	-0.19974	-0.00824	0.018158	-0.075836	0.18829	-0.024872	0.12512	0.019684	-0.035095	0.00473	-0.11261	0.054474	0.30472	0.000916	-0.029755	0.083313	-1.2175	0.048218	-0.071716	0.16235	0.22568	0.039215	0.55725	-0.006866	-0.11231	-0.15549	-0.018311	-0.10712	0.00061	-0.022278
2.12	0.000916	-0.35553	-0.13412	0.010986	0.014038	-0.053558	0.1886	-0.009308	0.093689	0.037842	-0.011902	-0.004272	-0.12512	-0.030365	0.52277	0.011902	-0.034485	-0.16083	0.29999	-0.10101	-0.14603	0.01297	0.12268	0.019684	0.5188	0.007477	-0.20218	-0.28625	0.36758	-0.30472	-0.003967	-0.013885
2.121	0.011749	-0.29709	-0.10208	0.012207	0.012207	-0.03067	0.19775	-0.014801	0.076904	0.023499	0.029755	0.007477	-0.11154	-0.005646	0.68802	-0.000763	-0.009155	-0.31708	0.20081	-0.092163	-0.14435	0.059204	0.056	0.031433	0.30594	0.006866	-0.074158	0.16632	0.41153	-0.41092	-0.000916	-0.019989
2.122	0.014801	-0.30884	-0.10117	-0.003815	0.012207	-0.01297	0.19165	-0.007782	0.052795	0.003357	0.11505	0.001526	-0.05127	0.074005	0.47424	0.009766	-0.02533	-0.2858	-0.8696	-0.096893	0.34164	0.063629	0.13138	0.080414	0.092163	-0.016327	0.085754	0.064392	-0.159	0.10574	0	-0.016479
2.123	0.014191	-0.3093	-0.10834	-0.007019	0.015411	-0.022125	0.12405	-0.004883	0.048065	0.001221	0.15305	-0.012207	-0.087585	0.096283	0.54413	-0.010681	-0.030365	-0.21423	-0.77743	-0.15656	0.12741	-0.000458	0.20844	0.066681	-0.046234	-0.058136	0.1062	0.066223	-0.32761	0.1059	0.001984	-0.013885
2.124	0.018158	-0.24063	-0.11108	-0.022736	0.014648	-0.025787	0.17151	-0.001678	0.030518	-0.030212	0.097198	0.004425	-0.084991	0.14313	0.3363	0.016632	-0.030365	-0.28717	-0.84122	-0.23163	-0.088806	-0.030212	0.2034	0.14801	-0.26413	-0.031433	0.077515	0.010529	-0.3363	0.091248	0.002594	-0.023346
2.125	0.011902	-0.26718	-0.1062	0.012207	0.011902	0.000153	0.18021	0.001221	0.021515	-0.091858	0.13138	-0.000153	0.008698	0.18158	-0.075531	0.027618	-0.020142	-0.39047	-0.6427	-0.25131	0.061798	-0.080719	0.30334	-0.029144	-0.34927	-0.010834	0.057373	-0.093384	-0.6218	-0.41672	0.000458	-0.009766
2.126	0.017242	-0.19989	-0.068512	0.020447	0.001831	-0.006256	0.18982	-0.007324	0.015869	-0.091553	0.17944	0.00351	0.041962	0.21591	-0.10971	0.008545	-0.010986	-0.38681	0.046997	-0.2153	-0.19302	-0.10895	0.25345	-0.11963	-0.33737	0.011444	0.042267	-0.13611	-0.71121	-0.53131	0.001373	-0.018005
2.127	0.017853	-0.16342	-0.0354	0.039825	0.004578	-0.016785	0.21057	-0.00061	-0.003967	-0.03952	-0.007629	-0.005188	-0.039673	0.16159	0.22583	-0.010529	-0.017548	-0.35461	-0.54764	-0.18082	-0.26093	-0.036621	0.14679	0.005341	-0.098419	0.043335	-0.00824	0.024872	-0.64911	-0.10803	0.01297	-0.022888
2.128	0.007629	-0.13443	-0.036774	0.010223	0.00412	-0.018616	0.26749	0.005341	-0.019073	-0.008545	-0.084076	0.001984	-0.081329	0.15076	0.1326	0.00473	-0.041199	-0.15595	-0.97427	-0.076447	0.26703	-0.096741	0.11108	0.14297	-0.048676	-0.008545	-0.007782	0.067596	-0.084381	-0.091248	0.001678	-0.019226
2.129	0.005646	-0.11124	-0.008392	0.006409	0.011749	-0.024109	0.22751	0.002441	-0.025482	0.000763	-0.058746	0.000153	-0.099182	0.061951	-0.18143	0.01236	-0.046844	-0.023956	-0.99258	0.023041	0.24414	-0.12741	0.11093	0.13473	-0.054779	-0.082855	-0.1593	0.12512	0.15991	-0.24445	-0.000763	-0.020752
2.13	-0.009918	-0.11993	-0.011902	-0.00061	0.014954	-0.012207	0.13275	0.003967	-0.024109	-0.022125	-0.10498	0.00473	-0.048981	0.023193	-0.97595	0.005646	-0.006104	0.036774	-0.2829	0.18662	0.078125	-0.20935	0.082092	0.081787	-0.061951	-0.040131	-0.24262	0.043182	0.17975	-0.47348	0.002899	-0.020599
2.131	-0.00824	-0.11383	-0.021057	-0.023041	0.019531	-0.003967	0.060883	-0.00473	-0.016937	-0.024109	-0.066833	-0.000916	-0.064392	0.001221	0.038147	-0.00473	0.049744	0.1091	-0.36682	0.18677	-0.19989	-0.16815	0.10773	-0.022278	-0.049438	-0.020599	-0.12039	0.016785	0.24948	-0.46951	-0.001831	-0.020447
2.132	-0.009918	-0.11353	0.005188	-0.00885	0.03067	0.009918	0.050049	-0.00473	-0.022278	-0.024414	-0.023956	-0.003052	-0.05722	0.004578	-0.66177	0.002899	0.041046	0.19486	-0.46509	0.19501	-0.23712	-0.18036	0.057526	0.043182	0.028839	-0.012207	-0.009308	0.045624	0.13321	0.014343	-0.000305	-0.02243
2.133	-0.008698	-0.076752	0.024567	-0.009766	0.016479	0.011139	0.10513	0.010986	-0.009003	-0.031433	-0.037994	0.005035	0.034637	-0.041809	-0.52551	0.016174	-0.000763	0.23621	-0.58548	0.10712	0.018005	-0.23483	-0.02182	0.10315	0.050201	-0.016327	0.13306	-0.17258	0.1268	-0.18295	0.001831	-0.025024
2.134	0.001373	-0.066223	0.033722	-0.00412	0.007935	0.006104	0.1033	-0.007477	-0.041656	-0.024109	0.027924	0.005798	-0.037842	-0.06073	-0.22263	0.013733	-0.057373	0.065308	-0.63782	0.032654	-0.087585	-0.27527	-0.10483	0.12924	0.018005	-0.016174	0.48202	-0.29053	0.039825	0.3186	0.001068	-0.011902
2.135	-0.004425	-0.10757	0.056152	0.019073	0.00351	0.001221	0.12528	0.001984	-0.05249	0.004578	0.12253	-0.001984	-0.12283	-0.045471	0.075684	0.007782	-0.039673	-0.2652	-0.97488	0.056	0.18478	-0.37827	-0.073853	0.079041	0.018463	-0.005188	0.233	-0.099792	0.14038	0.53162	0	-0.005951
2.136	-0.011749	-0.12497	0.062561	0.019684	0.000916	0.011139	0.10834	-0.000763	-0.028381	-0.023804	0.2124	-0.002899	-0.12375	0.022278	-0.13321	-0.00061	-0.031128	-0.65659	-1.2587	0.088654	0.30075	-0.47669	-0.087891	0.16785	-0.003662	-0.001831	0.02121	0.15213	0.14801	0.79804	-0.001984	-0.005341
2.137	0.000763	-0.12878	0.091858	0.02655	0.002747	0.005035	0.12482	0.007629	-0.023499	-0.051422	0.006104	0.009918	-0.12085	-0.011139	-0.21484	0.016174	-0.019836	-0.63782	-0.97153	0.056915	0.10742	-0.50888	-0.03067	0.10849	-0.12894	-0.006104	0.079803	0.085449	-0.021973	0.79666	0.000305	-0.00946
2.138	-0.010834	-0.11566	0.093536	0.028839	0.000305	-0.001373	0.09552	0.01297	-0.014648	-0.054626	-0.16846	0.001678	-0.047607	-0.002136	-0.061493	0.010834	0.019226	-0.66422	-0.17441	-0.054932	-0.22568	-0.33783	0.057831	0.008545	-0.23254	0.000153	-0.48675	0.031586	-0.037079	0.50873	-0.002136	-0.004883
2.139	-0.000305	-0.11917	0.11673	0.003204	0.007935	-0.003204	0.11887	0.003815	-0.009308	-0.064392	-0.1648	-0.00412	-0.022736	0.087433	-0.12955	0.021667	0.12878	-0.75073	0.62286	-0.048828	-0.16327	-0.32684	0.12482	-0.099945	-0.23666	0.027618	-0.86609	-0.010071	0.061188	0.29846	0.001373	-0.00061
